<svg xmlns="http://www.w3.org/2000/svg" width="231.375" height="83.131" viewBox="0 0 231.375 83.131">
  <g id="Logo" transform="translate(-105.048 -309.41)">
    <path id="Path_13264" data-name="Path 13264" d="M22.634,1.564a15.519,15.519,0,0,1-1.168,6.271,10.766,10.766,0,0,1-3.237,4.272l4.281,3.361-3.379,2.99-5.484-4.4a11.608,11.608,0,0,1-1.946.159,10.716,10.716,0,0,1-5.714-1.539,10.225,10.225,0,0,1-3.892-4.4A15.1,15.1,0,0,1,.7,1.706V.432a15.467,15.467,0,0,1,1.371-6.7A10.208,10.208,0,0,1,5.943-10.7a10.657,10.657,0,0,1,5.723-1.548A10.657,10.657,0,0,1,17.388-10.7a10.208,10.208,0,0,1,3.874,4.44A15.424,15.424,0,0,1,22.634.415ZM17.256.4a10.839,10.839,0,0,0-1.451-6.156,4.727,4.727,0,0,0-4.14-2.105A4.729,4.729,0,0,0,7.544-5.786,10.715,10.715,0,0,0,6.075.308V1.564A10.975,10.975,0,0,0,7.526,7.685,4.715,4.715,0,0,0,11.7,9.861a4.673,4.673,0,0,0,4.1-2.1,10.911,10.911,0,0,0,1.451-6.112ZM42.843,8.552H33.537l-1.769,5.307H26.125L35.713-11.9h4.918l9.641,25.758H44.629Zm-7.872-4.3H41.41L38.172-5.388ZM75.2,1.564a15.519,15.519,0,0,1-1.168,6.271A10.766,10.766,0,0,1,70.8,12.108l4.281,3.361L71.7,18.459l-5.484-4.4a11.608,11.608,0,0,1-1.946.159,10.716,10.716,0,0,1-5.714-1.539,10.225,10.225,0,0,1-3.892-4.4,15.1,15.1,0,0,1-1.4-6.572V.432a15.467,15.467,0,0,1,1.371-6.7,10.208,10.208,0,0,1,3.874-4.44,10.657,10.657,0,0,1,5.723-1.548A10.657,10.657,0,0,1,69.96-10.7a10.208,10.208,0,0,1,3.874,4.44A15.424,15.424,0,0,1,75.2.415ZM69.827.4a10.839,10.839,0,0,0-1.451-6.156,4.727,4.727,0,0,0-4.14-2.105,4.729,4.729,0,0,0-4.122,2.079A10.715,10.715,0,0,0,58.647.308V1.564A10.975,10.975,0,0,0,60.1,7.685a5.08,5.08,0,0,0,8.279.08,10.911,10.911,0,0,0,1.451-6.112ZM95.414,8.552H86.109L84.34,13.859H78.7L88.285-11.9H93.2l9.641,25.758H97.2Zm-7.872-4.3h6.439L90.744-5.388Zm29.019.177h-4.228v9.429h-5.307V-11.9H116.6q4.564,0,7.041,2.034a7.021,7.021,0,0,1,2.477,5.749,7.924,7.924,0,0,1-1.141,4.4,7.782,7.782,0,0,1-3.459,2.8l5.573,10.526v.248h-5.7Zm-4.228-4.3h4.281a4.383,4.383,0,0,0,3.1-1.017,3.636,3.636,0,0,0,1.1-2.8,3.892,3.892,0,0,0-1.035-2.866A4.3,4.3,0,0,0,116.6-7.6h-4.263Z" transform="translate(104.351 347.662)" fill="#fff"/>
    <g id="Logo-2" data-name="Logo" transform="translate(250.419 309.41)">
      <path id="Path_13228" data-name="Path 13228" d="M660.623,382.387s.872,4.651-4.651,4.8a63.2,63.2,0,0,1-6.685,0l-13.516-28.34,37.787-17.731s6.1,4.215-1.6,7.412a35.242,35.242,0,0,1-7.121,0c.291.145-4.215.145-4.215,5.959C660.332,354.483,660.623,382.387,660.623,382.387Z" transform="translate(-589.849 -304.116)" fill="#fff"/>
      <path id="Path_13229" data-name="Path 13229" d="M614.584,383.925s-7.121,1.163-6.831-4.8,0-5.632,0-5.632-.448-1.548,2.3-3.182,24.165-11.437,24.165-11.437l12.212,25.048Z" transform="translate(-594.532 -301.15)" fill="#fff"/>
      <path id="Path_13230" data-name="Path 13230" d="M609.624,369.108l21.757-10.148s-4.042-9.2-4.988-9.03-3.956-4.816-3.1-9.116c.172.086-6.622-15.393-6.622-15.393L597.154,345.2s-3.182,4.816,3.7,6.192c0,.086,5.16,0,5.16,0a4.5,4.5,0,0,1,3.956,4.816C609.968,360.68,609.624,369.108,609.624,369.108Z" transform="translate(-596.419 -306.736)" fill="#fff"/>
      <path id="Path_13231" data-name="Path 13231" d="M622.706,332.017s11.627-11.4,22.918-2.907c-.112.112,11.515,7.155,5.59,21.241.112-.224,19.452-9.95,19.452-9.95l-28.284-27.614s-5.7-7.6-14.2,0c-.017.344-8.531,8.686-8.531,8.686s-.86.688,0,3.01S622.706,332.017,622.706,332.017Z" transform="translate(-592.604 -309.41)" fill="#fff"/>
      <path id="Location" d="M41.9,16.95c0,10.03-11.99,18.139-12.5,18.479a.809.809,0,0,1-.9,0C27.99,35.089,16,26.98,16,16.95a12.95,12.95,0,0,1,25.9,0Zm-7.284,0a5.666,5.666,0,1,0-5.666,5.666A5.666,5.666,0,0,0,34.615,16.95Z" transform="translate(14.495 16.471)" fill="#fff"/>
    </g>
  </g>
</svg>
