<?xml version="1.0" encoding="UTF-8"?>
<!DOCTYPE svg PUBLIC "-//W3C//DTD SVG 1.1//EN" "http://www.w3.org/Graphics/SVG/1.1/DTD/svg11.dtd">
<svg xmlns="http://www.w3.org/2000/svg" version="1.1" width="512px" height="512px" style="shape-rendering:geometricPrecision; text-rendering:geometricPrecision; image-rendering:optimizeQuality; fill-rule:evenodd; clip-rule:evenodd" xmlns:xlink="http://www.w3.org/1999/xlink">
<g><path style="opacity:0.99" fill="#ffd700" d="M 63.5,70.5 C 63.5,112.833 63.5,155.167 63.5,197.5C 65.099,197.232 66.4324,197.566 67.5,198.5C 55.8212,199.994 47.1546,195.661 41.5,185.5C 43.4934,150.849 44.16,115.849 43.5,80.5C 48.0006,72.9164 54.6672,69.583 63.5,70.5 Z"/></g>
<g><path style="opacity:0.985" fill="#ffd100" d="M 63.5,70.5 C 70.5,70.5 77.5,70.5 84.5,70.5C 84.1721,81.6794 84.5054,92.6794 85.5,103.5C 80.1669,124.164 80.1669,144.831 85.5,165.5C 84.5056,175.987 84.1722,186.654 84.5,197.5C 85.791,197.263 86.791,197.596 87.5,198.5C 80.8333,198.5 74.1667,198.5 67.5,198.5C 66.4324,197.566 65.099,197.232 63.5,197.5C 63.5,155.167 63.5,112.833 63.5,70.5 Z"/></g>
<g><path style="opacity:0.947" fill="#ffca00" d="M 84.5,70.5 C 94.8833,68.2063 103.217,71.2063 109.5,79.5C 108.589,100.333 107.922,121.333 107.5,142.5C 101.824,142.666 96.1569,142.499 90.5,142C 85.5466,137.357 85.2133,132.357 89.5,127C 94.4012,125.675 99.4012,125.175 104.5,125.5C 104.562,112.298 101.395,99.9642 95,88.5C 93.4126,87.273 92.0793,87.6063 91,89.5C 88.4742,93.9138 86.6408,98.5805 85.5,103.5C 84.5054,92.6794 84.1721,81.6794 84.5,70.5 Z"/></g>
<g><path style="opacity:0.992" fill="#fe8c00" d="M 319.5,70.5 C 319.5,112.833 319.5,155.167 319.5,197.5C 318.209,197.263 317.209,197.596 316.5,198.5C 307.115,196.781 300.781,191.447 297.5,182.5C 298.833,150.167 298.833,117.833 297.5,85.5C 301.053,74.9453 308.387,69.9453 319.5,70.5 Z"/></g>
<g><path style="opacity:0.986" fill="#fe8600" d="M 319.5,70.5 C 327.5,70.5 335.5,70.5 343.5,70.5C 342.432,71.4345 341.099,71.7678 339.5,71.5C 339.171,84.6774 339.505,97.6774 340.5,110.5C 337.906,127.152 337.906,143.819 340.5,160.5C 339.505,172.655 339.171,184.989 339.5,197.5C 338.209,197.263 337.209,197.596 336.5,198.5C 329.833,198.5 323.167,198.5 316.5,198.5C 317.209,197.596 318.209,197.263 319.5,197.5C 319.5,155.167 319.5,112.833 319.5,70.5 Z"/></g>
<g><path style="opacity:0.935" fill="#fe7f00" d="M 343.5,70.5 C 352.006,68.7632 359.006,71.0965 364.5,77.5C 363.501,115.33 363.168,153.33 363.5,191.5C 361.929,194.231 359.595,196.065 356.5,197C 349.888,198.21 343.222,198.71 336.5,198.5C 337.209,197.596 338.209,197.263 339.5,197.5C 339.171,184.989 339.505,172.655 340.5,160.5C 342.341,166.174 344.507,171.84 347,177.5C 348.099,180.039 349.766,180.705 352,179.5C 359.107,165.402 362.607,150.402 362.5,134.5C 362.17,121.519 360.003,108.852 356,96.5C 354.669,93.1662 352.835,90.1662 350.5,87.5C 349.186,88.3128 348.019,89.3128 347,90.5C 343.927,96.884 341.761,103.551 340.5,110.5C 339.505,97.6774 339.171,84.6774 339.5,71.5C 341.099,71.7678 342.432,71.4345 343.5,70.5 Z"/></g>
<g><path style="opacity:0.965" fill="#fd7a00" d="M 364.5,77.5 C 372.422,88.4188 376.922,100.752 378,114.5C 380.313,134.079 378.98,153.412 374,172.5C 372.022,179.798 368.522,186.132 363.5,191.5C 363.168,153.33 363.501,115.33 364.5,77.5 Z"/></g>
<g><path style="opacity:0.991" fill="#fea500" d="M 234.5,81.5 C 234.169,110.005 234.502,138.338 235.5,166.5C 229.093,172.569 222.093,177.903 214.5,182.5C 213.833,148.833 213.167,115.167 212.5,81.5C 219.846,77.5023 227.179,77.5023 234.5,81.5 Z"/></g>
<g><path style="opacity:0.957" fill="#ffc500" d="M 109.5,79.5 C 117.67,93.6619 121.67,108.995 121.5,125.5C 124.833,125.5 128.167,125.5 131.5,125.5C 130.791,126.404 129.791,126.737 128.5,126.5C 128.5,131.833 128.5,137.167 128.5,142.5C 121.5,142.5 114.5,142.5 107.5,142.5C 107.922,121.333 108.589,100.333 109.5,79.5 Z"/></g>
<g><path style="opacity:0.954" fill="#ffdc00" d="M 43.5,80.5 C 44.16,115.849 43.4934,150.849 41.5,185.5C 33.8185,169.262 30.1518,152.096 30.5,134C 30.5716,119.07 33.0716,104.57 38,90.5C 39.6076,86.9439 41.4409,83.6106 43.5,80.5 Z"/></g>
<g><path style="opacity:0.993" fill="#feab00" d="M 212.5,81.5 C 213.167,115.167 213.833,148.833 214.5,182.5C 204.282,195.308 201.782,209.641 207,225.5C 208.965,231.428 211.465,237.094 214.5,242.5C 213.501,303.331 213.168,364.331 213.5,425.5C 212.448,425.351 211.448,425.517 210.5,426C 206.752,432.253 201.419,436.42 194.5,438.5C 193.5,322.668 193.167,206.668 193.5,90.5C 199.708,87.2294 206.041,84.2294 212.5,81.5 Z"/></g>
<g><path style="opacity:0.968" fill="#fea000" d="M 234.5,81.5 C 238.434,83.5978 241.6,86.5978 244,90.5C 247.153,102.101 249.986,113.768 252.5,125.5C 254.379,130.87 255.045,136.537 254.5,142.5C 253.178,142.33 252.011,142.663 251,143.5C 247.308,152.235 242.141,159.902 235.5,166.5C 234.502,138.338 234.169,110.005 234.5,81.5 Z"/></g>
<g><path style="opacity:0.961" fill="#fe9100" d="M 297.5,85.5 C 298.833,117.833 298.833,150.167 297.5,182.5C 291.204,170.035 288.204,156.702 288.5,142.5C 285.167,142.5 281.833,142.5 278.5,142.5C 278.5,137.167 278.5,131.833 278.5,126.5C 281.059,126.802 283.393,126.468 285.5,125.5C 286.5,125.5 287.5,125.5 288.5,125.5C 288.377,111.337 291.377,98.0038 297.5,85.5 Z"/></g>
<g><path style="opacity:0.997" fill="#feb100" d="M 193.5,90.5 C 193.167,206.668 193.5,322.668 194.5,438.5C 189.103,440.443 183.436,440.943 177.5,440C 174.401,439.613 171.734,438.446 169.5,436.5C 169.5,322.167 169.5,207.833 169.5,93.5C 177.552,92.8735 185.552,91.8735 193.5,90.5 Z"/></g>
<g><path style="opacity:0.995" fill="#feb800" d="M 169.5,93.5 C 169.5,207.833 169.5,322.167 169.5,436.5C 165.328,434.842 161.828,432.175 159,428.5C 154.87,419.934 151.036,411.267 147.5,402.5C 148.833,307.167 148.833,211.833 147.5,116.5C 150.803,104.866 158.136,97.1993 169.5,93.5 Z"/></g>
<g><path style="opacity:0.988" fill="#febe00" d="M 147.5,116.5 C 148.833,211.833 148.833,307.167 147.5,402.5C 140.206,387.298 133.872,371.631 128.5,355.5C 128.832,301.664 128.499,247.997 127.5,194.5C 130.855,177.084 134.521,159.751 138.5,142.5C 135.167,142.5 131.833,142.5 128.5,142.5C 128.5,137.167 128.5,131.833 128.5,126.5C 129.791,126.737 130.791,126.404 131.5,125.5C 135.555,125.824 139.555,125.491 143.5,124.5C 144.661,121.642 145.994,118.975 147.5,116.5 Z"/></g>
<g><path style="opacity:0.899" fill="#fe8000" d="M 347.5,123.5 C 357.664,124.118 361.164,129.451 358,139.5C 355.459,144.069 351.625,145.569 346.5,144C 344.185,142.891 342.685,141.057 342,138.5C 340.087,131.97 341.92,126.97 347.5,123.5 Z"/></g>
<g><path style="opacity:0.925" fill="#fe9900" d="M 252.5,125.5 C 263.5,125.5 274.5,125.5 285.5,125.5C 283.393,126.468 281.059,126.802 278.5,126.5C 278.5,131.833 278.5,137.167 278.5,142.5C 270.5,142.5 262.5,142.5 254.5,142.5C 255.045,136.537 254.379,130.87 252.5,125.5 Z"/></g>
<g><path style="opacity:0.938" fill="#ffc900" d="M 87.5,198.5 C 86.791,197.596 85.791,197.263 84.5,197.5C 84.1722,186.654 84.5056,175.987 85.5,165.5C 86.347,171.53 89.0137,176.53 93.5,180.5C 96.0609,178.393 97.8942,175.726 99,172.5C 100.583,167.661 102.083,162.828 103.5,158C 109.157,157.501 114.824,157.334 120.5,157.5C 119.191,169.931 115.024,181.264 108,191.5C 102.363,197.123 95.5297,199.456 87.5,198.5 Z"/></g>
<g><path style="opacity:0.938" fill="#ffc200" d="M 127.5,194.5 C 128.499,247.997 128.832,301.664 128.5,355.5C 121.672,335.011 118.672,313.844 119.5,292C 119.697,259.271 122.364,226.771 127.5,194.5 Z"/></g>
<g><path style="opacity:0.994" fill="#fd7300" d="M 403.5,202.5 C 404.496,258.428 404.829,314.428 404.5,370.5C 398.173,375 391.506,379 384.5,382.5C 384.5,322.833 384.5,263.167 384.5,203.5C 390.815,202.89 397.149,202.557 403.5,202.5 Z"/></g>
<g><path style="opacity:0.994" fill="#fd6d00" d="M 403.5,202.5 C 411.261,203.319 418.927,204.652 426.5,206.5C 425.17,255.931 425.17,305.264 426.5,354.5C 419.559,360.311 412.226,365.644 404.5,370.5C 404.829,314.428 404.496,258.428 403.5,202.5 Z"/></g>
<g><path style="opacity:0.996" fill="#fd7900" d="M 384.5,203.5 C 384.5,263.167 384.5,322.833 384.5,382.5C 377.698,386.738 370.698,390.738 363.5,394.5C 363.832,355.33 363.499,316.33 362.5,277.5C 365.982,273.76 366.315,269.76 363.5,265.5C 363.5,247.167 363.5,228.833 363.5,210.5C 370.099,207.189 377.099,204.856 384.5,203.5 Z"/></g>
<g><path style="opacity:0.995" fill="#fd6700" d="M 426.5,206.5 C 434.391,209.112 441.724,212.779 448.5,217.5C 448.659,259.269 448.659,300.935 448.5,342.5C 441.81,347.515 434.477,351.515 426.5,354.5C 425.17,305.264 425.17,255.931 426.5,206.5 Z"/></g>
<g><path style="opacity:0.975" fill="#fe8000" d="M 363.5,210.5 C 363.5,228.833 363.5,247.167 363.5,265.5C 350.421,258.586 336.754,253.253 322.5,249.5C 331.326,231.339 344.992,218.339 363.5,210.5 Z"/></g>
<g><path style="opacity:0.99" fill="#fd6000" d="M 448.5,217.5 C 456.422,222.753 463.422,229.086 469.5,236.5C 469.5,265.5 469.5,294.5 469.5,323.5C 464.071,331.597 457.071,337.93 448.5,342.5C 448.659,300.935 448.659,259.269 448.5,217.5 Z"/></g>
<g><path style="opacity:0.958" fill="#fd5b00" d="M 469.5,236.5 C 487.732,261.392 489.899,287.725 476,315.5C 474.054,318.42 471.887,321.087 469.5,323.5C 469.5,294.5 469.5,265.5 469.5,236.5 Z"/></g>
<g><path style="opacity:0.995" fill="#fea500" d="M 214.5,242.5 C 221.413,252.655 228.08,262.988 234.5,273.5C 234.5,324.167 234.5,374.833 234.5,425.5C 235.791,425.263 236.791,425.596 237.5,426.5C 229.414,426.801 221.414,426.467 213.5,425.5C 213.168,364.331 213.501,303.331 214.5,242.5 Z"/></g>
<g><path style="opacity:0.995" fill="#fe9200" d="M 298.5,264.5 C 298.5,315.833 298.5,367.167 298.5,418.5C 292.273,420.307 285.939,421.64 279.5,422.5C 279.173,371.561 278.173,320.894 276.5,270.5C 283.304,266.963 290.637,264.963 298.5,264.5 Z"/></g>
<g><path style="opacity:0.996" fill="#fe8c00" d="M 298.5,264.5 C 305.557,264.24 312.557,264.573 319.5,265.5C 319.828,314.572 319.495,363.572 318.5,412.5C 312.028,415.101 305.362,417.101 298.5,418.5C 298.5,367.167 298.5,315.833 298.5,264.5 Z"/></g>
<g><path style="opacity:0.995" fill="#fe8600" d="M 319.5,265.5 C 326.13,266.156 332.463,267.823 338.5,270.5C 339.494,315.095 339.828,359.761 339.5,404.5C 332.888,407.93 325.888,410.597 318.5,412.5C 319.495,363.572 319.828,314.572 319.5,265.5 Z"/></g>
<g><path style="opacity:0.994" fill="#fe9900" d="M 276.5,270.5 C 278.173,320.894 279.173,371.561 279.5,422.5C 271.271,424.237 262.938,425.237 254.5,425.5C 254.5,380.167 254.5,334.833 254.5,289.5C 256.591,286.229 258.924,283.063 261.5,280C 266.134,276.188 271.134,273.021 276.5,270.5 Z"/></g>
<g><path style="opacity:0.993" fill="#fe8000" d="M 338.5,270.5 C 344.593,272.711 350.593,275.211 356.5,278C 358.545,278.49 360.545,278.323 362.5,277.5C 363.499,316.33 363.832,355.33 363.5,394.5C 355.723,398.389 347.723,401.722 339.5,404.5C 339.828,359.761 339.494,315.095 338.5,270.5 Z"/></g>
<g><path style="opacity:0.992" fill="#fe9f00" d="M 234.5,273.5 C 239.891,280.591 245.057,287.925 250,295.5C 251.277,293.253 252.777,291.253 254.5,289.5C 254.5,334.833 254.5,380.167 254.5,425.5C 249.025,426.489 243.358,426.822 237.5,426.5C 236.791,425.596 235.791,425.263 234.5,425.5C 234.5,374.833 234.5,324.167 234.5,273.5 Z"/></g>
</svg>
